# xmcd
#
# Track frame offsets:
# 150
# 10088
# 20833
# 33248
# 47033
# 58495
# 70290
# 79738
# 94395
# 108180
# 119968
# 133183
#
# Disc length: 1912 seconds
#
# Revision: 1
# Processed by: cddbd v1.5PL3 Copyright (c) Steve Scherf et al.
# Submitted via: Easy CD Ripper v2.27
#
DISCID=af07760c
DTITLE=Raimon - Disc Antològic de les seves cançons
DYEAR=1991
DGENRE=Folk
TTITLE0=Al vent
TTITLE1=Som
TTITLE2=La pedra
TTITLE3=Perduts
TTITLE4=A colps
TTITLE5=17 anys
TTITLE6=La nit
TTITLE7=Cançó de les mans
TTITLE8=D'un temps d'un país
TTITLE9=Ahir (Diguem no)
TTITLE10=Cantarem la vida
TTITLE11=Si em mor
EXTD=
EXTT0=
EXTT1=
EXTT2=
EXTT3=
EXTT4=
EXTT5=
EXTT6=
EXTT7=
EXTT8=
EXTT9=
EXTT10=
EXTT11=
PLAYORDER=
